<?xml version="1.0" encoding="UTF-8"?>
<svg xmlns="http://www.w3.org/2000/svg" viewBox="0 0 1126 1126">
  <defs>
    <style>
      .cls-1 {
        mix-blend-mode: hard-light;
      }

      .cls-2, .cls-3, .cls-4 {
        stroke-width: 0px;
      }

      .cls-5 {
        isolation: isolate;
      }

      .cls-3 {
        fill: #2d2d2d;
      }

      .cls-4 {
        fill: #fcf8b6;
      }
    </style>
  </defs>
  <g class="cls-5">
    <g id="Layer_1_Image" data-name="Layer 1 Image">
      <rect class="cls-4" width="1126" height="1126"/>
    </g>
    <g id="Layer_0_Image_copy" data-name="Layer 0 Image copy" class="cls-1">
      <path class="cls-2" d="M667.75,638.48c27-16.02,53.9-29.13,83.44-30.61,43.6-2.18,87.38-.56,131.94-.56-47.64,42.52-147.45,57.26-215.38,31.17Z"/>
      <path class="cls-2" d="M242.51,606.38c4.82.22,10.39.68,15.95.69,37.77.07,75.58-1.06,113.29.41,30.92,1.21,59.13,12.46,85.5,30.39-67.22,26.82-157.72,14.2-214.75-31.49Z"/>
      <path class="cls-3" d="M561.44,837.14s18.87,40.4,87.17,49.43h-180.73c70.7-9.83,93.55-49.43,93.55-49.43Z"/>
      <path class="cls-2" d="M1126,733.97v-11.88c-49.74-.03-99.49-.06-149.23-.07-23.23,0-23.38.03-23.4-23.05-.11-145.94-.14-291.87-.2-437.81,0-4.7,0-9.4,0-17.4-13.29,4.96-24.41,8.11-34.64,13.1-60.3,29.46-120.43,59.25-180.53,89.14-34.7,17.26-70.42,31.96-108.2,40.73-20.07,4.66-40.69,6.94-62.45,10.53v-150.55c-4.31.25-7.65.44-12.25.7v148.15c-35.69-.21-68.54-8.72-100.39-20.14-66.09-23.71-126.63-59.36-189.27-90.48-23.77-11.81-47.42-23.88-71.35-35.38-4.61-2.21-10.23-2.32-14.24-3.16v344.13c6.42,0,11.26-.05,16.1,0,60.89.79,121.9-.48,182.63,3.01,53.46,3.07,97.49,29.8,132.58,69.29,17.97,20.24,33.58,42.98,42.24,69.52,1.09,3.34,6.11,5.39,9.31,8.04,1.1-.81,2.2-1.62,3.3-2.43v-334.37c13.14.98,26.14-1.14,36.19,3.34,21.95,9.78,42.46,22.8,63.44,34.7,54.18,30.71,108.34,61.46,162.43,92.32,31.08,17.73,61.99,35.76,93.06,53.52,7.34,4.2,14.98,7.87,22.49,11.78-.31,1.14-.63,2.27-.94,3.41-4.24,0-8.52.36-12.72-.07-13.04-1.33-24.04,1.86-34.7,10.31-11.26,8.92-23.88,16.57-36.84,22.82-65.19,31.44-132.5,34.17-201.41,13.73-3.57-1.06-9.3.44-12.28,2.87-27.3,22.31-46.2,50.8-59.93,83.04-2.82,6.62-1.05,10.66,3.45,15.86,12.21,14.1,7.4,36.35-9.67,43.78-15.46,6.72-29.45,4.11-41.75-8.74-8.6-8.99-11.59-26.36-1.71-33.05,13.25-8.98,5.11-16.91,1.63-25.5-.97-2.4-3.69-4.1-4.66-6.51-10.95-27.13-29.17-48.84-49.93-68.91-5.2-5.03-9.26-5.44-15.79-3.25-48.58,16.31-98.01,19.22-147.71,6.2-34.17-8.95-65.15-24.93-92.99-46.88-2.73-2.15-6.34-4.44-9.57-4.47-11.14-.11-22.3.75-34.56,1.3,5.63,41.45,14.4,80.89,38.73,116.86H0v11.98c72.29,0,144.58.08,216.87.23,4.54,0,10.73.44,13.33,3.27,13.21,14.4,25.5,29.66,38.99,45.66H0v12.22c83.67.03,167.34.17,251.01-.4,21.26-.14,39.16,2.79,56.77,16.71,17.45,13.79,38.81,22.64,58.86,33.89H114.78c.64,10.15,5,13.26,14.74,13.22,89.43-.37,178.87-.05,268.3-.4,8.76-.03,13.39,2.33,15.56,10.82,5.92,23.14,20.91,41.33,34.26,60.26,4.26,6.04,12,12.64,16.48,15.52,4.49,2.89,22.47,15.34,40.32,20.8,18.6,5.68,102.77,3.08,111.78,1.27,9.6-1.93,34.92-13.59,51.53-26.62,16.61-13.03,36.44-53.4,53.93-81.41h221.05v33.7c3.51-.51,7.02-1.01,10.52-1.5,0-10.81.03-21.71.03-32.8h57.46c-.39-9.75-4.89-12.55-13.41-12.07-11.75.67-23.58.46-35.35-.07-2.84-.13-7.89-2.94-7.96-4.69-.63-15.21-.37-30.46-.37-46.51h172.35v-11.85c-52.74.04-105.48,0-158.22,0-4.66,0-9.31,0-13.89,0v-49.3h172.11ZM942.47,638.35c0,22.86.18,49.52-.29,76.16-.05,2.59-3.94,7.06-6.39,7.31-8.7.9-17.54.35-25.69.35,11.33-29.35,22.4-58,32.37-83.82ZM898.43,736.93c1.58-1.78,4.97-2.67,7.56-2.73,11.74-.28,23.5-.12,36.06-.12v48.76h-83.23c13.6-15.86,26.44-31.04,39.61-45.91ZM942.69,845.23h-180.18c19.01-10.96,37.88-21.85,56.77-32.7,1.72-.99,4.21-1.2,5.32-2.58,12.13-15.19,28.69-15.29,46.04-14.78,23.5.69,47.04.17,72.04.17v49.89Z"/>
      <path class="cls-3" d="M567.22,840.36s19.57,41.91,90.43,51.28h-187.47c73.33-10.2,97.04-51.28,97.04-51.28Z"/>
    </g>
  </g>
</svg>