<svg width="1200" height="630" viewBox="0 0 1200 630" fill="none" xmlns="http://www.w3.org/2000/svg">
<g clip-path="url(#clip0_439_32)">
<rect width="1200" height="630" fill="url(#paint0_linear_439_32)"/>
<rect width="1200" height="630" fill="url(#paint1_linear_439_32)"/>
<text x="91" y="500" font-family="IBM Plex Mono" font-size="40" fill="black">{{eth_address}}</text>
<path d="M505.666 133H496.489V93.877H482.344V86.494H519.811V93.877H505.666V133ZM529.744 133H520.774V97.327H529.33V104.641C531.538 98.776 535.057 96.568 538.852 96.568C539.611 96.568 540.853 96.637 541.75 96.982V104.641H537.886C533.056 104.641 529.744 107.884 529.744 114.577V133ZM581.41 127.066V133C579.409 133.552 577.27 133.828 576.028 133.828C570.232 133.828 568.024 132.034 567.955 126.859C565.333 132.31 560.71 133.828 556.777 133.828C551.878 133.828 544.909 131.62 544.909 123.064C544.909 113.68 552.913 112.162 561.814 111.817L567.541 111.61V108.574C567.541 105.331 566.368 102.778 561.331 102.778C558.64 102.778 555.19 103.744 554.845 108.091L546.151 107.401C546.841 98.983 555.328 96.568 561.331 96.568C572.164 96.568 576.511 100.984 576.511 108.367V122.305C576.511 125.962 576.856 127.066 579.34 127.066H581.41ZM567.541 117.889V116.785L561.676 116.992C557.398 117.13 553.948 118.234 553.948 122.443C553.948 126.652 557.881 127.135 559.744 127.135C563.746 127.135 567.541 124.03 567.541 117.889ZM619.573 133H610.603V111.403C610.603 106.711 608.533 103.882 604.393 103.882C599.494 103.882 596.251 107.815 596.251 114.439V133H587.281V97.327H595.837V104.503C598.39 98.845 602.598 96.568 607.843 96.568C613.846 96.568 619.573 99.88 619.573 107.884V133ZM657.202 107.47L648.646 107.746C648.301 103.744 645.61 102.433 642.436 102.433C639.4 102.433 636.709 103.33 636.709 106.021C636.709 113.956 657.547 109.264 657.547 123.064C657.547 129.619 651.751 133.828 642.091 133.828C637.468 133.828 627.739 132.379 626.842 122.374H635.536C635.95 126.445 639.193 127.549 642.436 127.549C646.714 127.549 648.646 126.169 648.646 123.754C648.646 116.026 627.877 120.58 627.877 106.849C627.877 99.811 635.26 96.568 642.298 96.568C648.025 96.568 656.098 98.017 657.202 107.47ZM675.528 133H666.558V104.158H661.383V97.327H666.558V94.705C666.558 89.323 667.662 82.561 679.323 82.561C680.151 82.561 682.428 82.63 684.36 83.113V89.185H680.427C676.356 89.185 675.528 91.531 675.528 94.567V97.327H684.222V104.158H675.528V133ZM704.817 133.828C694.122 133.828 687.429 126.859 687.429 115.198C687.429 103.468 694.122 96.568 704.817 96.568C715.512 96.568 722.136 103.468 722.136 115.198C722.136 126.859 715.512 133.828 704.817 133.828ZM704.817 127.066C710.268 127.066 712.959 122.788 712.959 115.198C712.959 107.608 710.268 103.261 704.817 103.261C699.366 103.261 696.606 107.608 696.606 115.198C696.606 122.788 699.366 127.066 704.817 127.066ZM738.9 133H729.93V97.327H738.486V104.641C740.694 98.776 744.213 96.568 748.008 96.568C748.767 96.568 750.009 96.637 750.906 96.982V104.641H747.042C742.212 104.641 738.9 107.884 738.9 114.577V133ZM809.541 133H800.571V111.403C800.571 106.711 798.639 103.882 794.844 103.882C790.428 103.882 787.461 107.815 787.461 114.439V133H778.491V111.403C778.491 106.711 776.559 103.882 772.764 103.882C768.348 103.882 765.381 107.815 765.381 114.439V133H756.411V97.327H764.967V104.503C767.382 98.914 771.315 96.568 776.214 96.568C781.044 96.568 785.667 98.914 787.047 104.434C789.393 98.983 793.257 96.568 798.294 96.568C804.021 96.568 809.541 99.88 809.541 107.884V133ZM822.659 143.695H817.346V122.857H826.178C826.178 128.377 826.04 134.104 822.659 143.695ZM871.55 120.304H880.52C879.278 128.86 873.551 133.828 864.65 133.828C853.817 133.828 847.193 126.997 847.193 115.474C847.193 103.537 853.955 96.568 864.65 96.568C873.413 96.568 879.278 101.329 880.52 109.747L871.481 110.161C870.791 105.676 868.514 103.261 864.65 103.261C859.13 103.261 856.37 107.608 856.37 115.198C856.37 122.788 859.199 127.066 864.65 127.066C868.583 127.066 870.791 124.72 871.55 120.304ZM903.461 133.828C892.766 133.828 886.073 126.859 886.073 115.198C886.073 103.468 892.766 96.568 903.461 96.568C914.156 96.568 920.78 103.468 920.78 115.198C920.78 126.859 914.156 133.828 903.461 133.828ZM903.461 127.066C908.912 127.066 911.603 122.788 911.603 115.198C911.603 107.608 908.912 103.261 903.461 103.261C898.01 103.261 895.25 107.608 895.25 115.198C895.25 122.788 898.01 127.066 903.461 127.066ZM981.704 133H972.734V111.403C972.734 106.711 970.802 103.882 967.007 103.882C962.591 103.882 959.624 107.815 959.624 114.439V133H950.654V111.403C950.654 106.711 948.722 103.882 944.927 103.882C940.511 103.882 937.544 107.815 937.544 114.439V133H928.574V97.327H937.13V104.503C939.545 98.914 943.478 96.568 948.377 96.568C953.207 96.568 957.83 98.914 959.21 104.434C961.556 98.983 965.42 96.568 970.457 96.568C976.184 96.568 981.704 99.88 981.704 107.884V133ZM1000.07 133H991.51V83.32H1000.48V98.776L1000.13 103.882C1002.62 98.638 1006.76 96.568 1011.73 96.568C1019.45 96.568 1025.73 102.157 1025.73 115.129C1025.73 128.584 1019.39 133.828 1011.73 133.828C1006.69 133.828 1002.55 131.689 1000.07 126.238V133ZM1008.76 127.135C1013.18 127.135 1016.56 123.547 1016.56 115.129C1016.56 106.849 1013.18 103.261 1008.76 103.261C1003.65 103.261 1000.41 106.642 1000.41 115.129C1000.41 123.754 1003.72 127.135 1008.76 127.135ZM1042.53 133H1033.56V97.327H1042.53V133ZM1042.73 91.738H1033.35V84.01H1042.73V91.738ZM1084.78 133H1075.81V111.403C1075.81 106.711 1073.74 103.882 1069.6 103.882C1064.7 103.882 1061.46 107.815 1061.46 114.439V133H1052.49V97.327H1061.05V104.503C1063.6 98.845 1067.81 96.568 1073.05 96.568C1079.06 96.568 1084.78 99.88 1084.78 107.884V133ZM1126.62 117.13H1102.06C1102.33 123.547 1105.16 127.066 1110.27 127.066C1114.55 127.066 1116.75 124.996 1117.51 121.753H1126.48C1124.97 129.274 1119.45 133.828 1110.54 133.828C1099.57 133.828 1092.81 126.997 1092.81 115.474C1092.81 103.537 1099.78 96.568 1110.54 96.568C1120.55 96.568 1126.83 102.64 1126.83 114.163L1126.62 117.13ZM1102.2 111.61H1117.58C1117.17 106.366 1115.24 103.261 1110.27 103.261C1105.65 103.261 1102.95 106.297 1102.2 111.61ZM773.653 211.066V217C771.652 217.552 769.513 217.828 768.271 217.828C762.475 217.828 760.267 216.034 760.198 210.859C757.576 216.31 752.953 217.828 749.02 217.828C744.121 217.828 737.152 215.62 737.152 207.064C737.152 197.68 745.156 196.162 754.057 195.817L759.784 195.61V192.574C759.784 189.331 758.611 186.778 753.574 186.778C750.883 186.778 747.433 187.744 747.088 192.091L738.394 191.401C739.084 182.983 747.571 180.568 753.574 180.568C764.407 180.568 768.754 184.984 768.754 192.367V206.305C768.754 209.962 769.099 211.066 771.583 211.066H773.653ZM759.784 201.889V200.785L753.919 200.992C749.641 201.13 746.191 202.234 746.191 206.443C746.191 210.652 750.124 211.135 751.987 211.135C755.989 211.135 759.784 208.03 759.784 201.889ZM811.816 217H802.846V195.403C802.846 190.711 800.776 187.882 796.636 187.882C791.737 187.882 788.494 191.815 788.494 198.439V217H779.524V181.327H788.08V188.503C790.633 182.845 794.842 180.568 800.086 180.568C806.089 180.568 811.816 183.88 811.816 191.884V217ZM853.723 217H845.167V210.169C842.545 215.689 838.474 217.828 833.506 217.828C825.847 217.828 819.499 212.584 819.499 199.129C819.499 186.157 825.847 180.568 833.506 180.568C838.474 180.568 842.614 182.638 845.029 187.813L844.753 182.776V167.32H853.723V217ZM836.473 211.135C841.51 211.135 844.822 207.754 844.822 199.129C844.822 190.642 841.579 187.261 836.473 187.261C832.057 187.261 828.676 190.849 828.676 199.129C828.676 207.547 832.057 211.135 836.473 211.135ZM932.043 217H923.073V195.403C923.073 190.711 921.141 187.882 917.346 187.882C912.93 187.882 909.963 191.815 909.963 198.439V217H900.993V195.403C900.993 190.711 899.061 187.882 895.266 187.882C890.85 187.882 887.883 191.815 887.883 198.439V217H878.913V181.327H887.469V188.503C889.884 182.914 893.817 180.568 898.716 180.568C903.546 180.568 908.169 182.914 909.549 188.434C911.895 182.983 915.759 180.568 920.796 180.568C926.523 180.568 932.043 183.88 932.043 191.884V217ZM950.819 217H941.849V181.327H950.819V217ZM951.026 175.738H941.642V168.01H951.026V175.738ZM983.898 216.793V215.551L984.381 208.927C981.897 214.516 977.688 216.586 972.651 216.586C964.923 216.586 958.644 211.135 958.644 198.922C958.644 185.743 964.992 180.568 972.651 180.568C977.619 180.568 981.828 182.707 984.312 188.158V181.327H992.868V216.379C992.868 222.451 990.729 231.766 975.894 231.766C970.374 231.766 960.852 229.282 959.955 219.553L968.649 219.139C968.925 223.279 972.168 225.349 976.101 225.349C982.725 225.349 983.898 221.209 983.898 216.793ZM975.618 209.824C980.724 209.824 983.967 206.581 983.967 198.853C983.967 190.435 980.655 187.261 975.618 187.261C971.202 187.261 967.821 190.711 967.821 198.853C967.821 206.374 971.202 209.824 975.618 209.824ZM1011.73 217H1002.76V181.327H1011.32V188.641C1013.53 182.776 1017.05 180.568 1020.84 180.568C1021.6 180.568 1022.84 180.637 1023.74 180.982V188.641H1019.87C1015.04 188.641 1011.73 191.884 1011.73 198.577V217ZM1063.4 211.066V217C1061.4 217.552 1059.26 217.828 1058.02 217.828C1052.22 217.828 1050.01 216.034 1049.94 210.859C1047.32 216.31 1042.7 217.828 1038.77 217.828C1033.87 217.828 1026.9 215.62 1026.9 207.064C1026.9 197.68 1034.9 196.162 1043.8 195.817L1049.53 195.61V192.574C1049.53 189.331 1048.36 186.778 1043.32 186.778C1040.63 186.778 1037.18 187.744 1036.83 192.091L1028.14 191.401C1028.83 182.983 1037.32 180.568 1043.32 180.568C1054.15 180.568 1058.5 184.984 1058.5 192.367V206.305C1058.5 209.962 1058.85 211.066 1061.33 211.066H1063.4ZM1049.53 201.889V200.785L1043.67 200.992C1039.39 201.13 1035.94 202.234 1035.94 206.443C1035.94 210.652 1039.87 211.135 1041.73 211.135C1045.74 211.135 1049.53 208.03 1049.53 201.889ZM1088.24 210.169V217.069C1086.45 217.69 1084.04 217.828 1083.55 217.828C1071.82 217.828 1070.65 211.687 1070.65 202.786V188.296H1065.54V181.465H1070.65V172.357H1079.62V181.465H1088.24V188.296H1079.62V202.786C1079.62 208.03 1080.45 210.169 1084.59 210.169H1088.24ZM1126.62 201.13H1102.06C1102.33 207.547 1105.16 211.066 1110.27 211.066C1114.55 211.066 1116.75 208.996 1117.51 205.753H1126.48C1124.97 213.274 1119.45 217.828 1110.54 217.828C1099.57 217.828 1092.81 210.997 1092.81 199.474C1092.81 187.537 1099.78 180.568 1110.54 180.568C1120.55 180.568 1126.83 186.64 1126.83 198.163L1126.62 201.13ZM1102.2 195.61H1117.58C1117.17 190.366 1115.24 187.261 1110.27 187.261C1105.65 187.261 1102.95 190.297 1102.2 195.61ZM773.653 295.066V301C771.652 301.552 769.513 301.828 768.271 301.828C762.475 301.828 760.267 300.034 760.198 294.859C757.576 300.31 752.953 301.828 749.02 301.828C744.121 301.828 737.152 299.62 737.152 291.064C737.152 281.68 745.156 280.162 754.057 279.817L759.784 279.61V276.574C759.784 273.331 758.611 270.778 753.574 270.778C750.883 270.778 747.433 271.744 747.088 276.091L738.394 275.401C739.084 266.983 747.571 264.568 753.574 264.568C764.407 264.568 768.754 268.984 768.754 276.367V290.305C768.754 293.962 769.099 295.066 771.583 295.066H773.653ZM759.784 285.889V284.785L753.919 284.992C749.641 285.13 746.191 286.234 746.191 290.443C746.191 294.652 750.124 295.135 751.987 295.135C755.989 295.135 759.784 292.03 759.784 285.889ZM798.499 294.169V301.069C796.705 301.69 794.29 301.828 793.807 301.828C782.077 301.828 780.904 295.687 780.904 286.786V272.296H775.798V265.465H780.904V256.357H789.874V265.465H798.499V272.296H789.874V286.786C789.874 292.03 790.702 294.169 794.842 294.169H798.499ZM824.172 294.169V301.069C822.378 301.69 819.963 301.828 819.48 301.828C807.75 301.828 806.577 295.687 806.577 286.786V272.296H801.471V265.465H806.577V256.357H815.547V265.465H824.172V272.296H815.547V286.786C815.547 292.03 816.375 294.169 820.515 294.169H824.172ZM862.548 285.13H837.984C838.26 291.547 841.089 295.066 846.195 295.066C850.473 295.066 852.681 292.996 853.44 289.753H862.41C860.892 297.274 855.372 301.828 846.471 301.828C835.5 301.828 828.738 294.997 828.738 283.474C828.738 271.537 835.707 264.568 846.471 264.568C856.476 264.568 862.755 270.64 862.755 282.163L862.548 285.13ZM838.122 279.61H853.509C853.095 274.366 851.163 271.261 846.195 271.261C841.572 271.261 838.881 274.297 838.122 279.61ZM898.702 275.47L890.146 275.746C889.801 271.744 887.11 270.433 883.936 270.433C880.9 270.433 878.209 271.33 878.209 274.021C878.209 281.956 899.047 277.264 899.047 291.064C899.047 297.619 893.251 301.828 883.591 301.828C878.968 301.828 869.239 300.379 868.342 290.374H877.036C877.45 294.445 880.693 295.549 883.936 295.549C888.214 295.549 890.146 294.169 890.146 291.754C890.146 284.026 869.377 288.58 869.377 274.849C869.377 267.811 876.76 264.568 883.798 264.568C889.525 264.568 897.598 266.017 898.702 275.47ZM925.515 294.169V301.069C923.721 301.69 921.306 301.828 920.823 301.828C909.093 301.828 907.92 295.687 907.92 286.786V272.296H902.814V265.465H907.92V256.357H916.89V265.465H925.515V272.296H916.89V286.786C916.89 292.03 917.718 294.169 921.858 294.169H925.515ZM966.368 295.066V301C964.367 301.552 962.228 301.828 960.986 301.828C955.19 301.828 952.982 300.034 952.913 294.859C950.291 300.31 945.668 301.828 941.735 301.828C936.836 301.828 929.867 299.62 929.867 291.064C929.867 281.68 937.871 280.162 946.772 279.817L952.499 279.61V276.574C952.499 273.331 951.326 270.778 946.289 270.778C943.598 270.778 940.148 271.744 939.803 276.091L931.109 275.401C931.799 266.983 940.286 264.568 946.289 264.568C957.122 264.568 961.469 268.984 961.469 276.367V290.305C961.469 293.962 961.814 295.066 964.298 295.066H966.368ZM952.499 285.889V284.785L946.634 284.992C942.356 285.13 938.906 286.234 938.906 290.443C938.906 294.652 942.839 295.135 944.702 295.135C948.704 295.135 952.499 292.03 952.499 285.889ZM991.214 294.169V301.069C989.42 301.69 987.005 301.828 986.522 301.828C974.792 301.828 973.619 295.687 973.619 286.786V272.296H968.513V265.465H973.619V256.357H982.589V265.465H991.214V272.296H982.589V286.786C982.589 292.03 983.417 294.169 987.557 294.169H991.214ZM1006.88 301H997.911V265.327H1006.88V301ZM1007.09 259.738H997.704V252.01H1007.09V259.738ZM1032.09 301.828C1021.4 301.828 1014.71 294.859 1014.71 283.198C1014.71 271.468 1021.4 264.568 1032.09 264.568C1042.79 264.568 1049.41 271.468 1049.41 283.198C1049.41 294.859 1042.79 301.828 1032.09 301.828ZM1032.09 295.066C1037.55 295.066 1040.24 290.788 1040.24 283.198C1040.24 275.608 1037.55 271.261 1032.09 271.261C1026.64 271.261 1023.88 275.608 1023.88 283.198C1023.88 290.788 1026.64 295.066 1032.09 295.066ZM1089.5 301H1080.53V279.403C1080.53 274.711 1078.46 271.882 1074.32 271.882C1069.42 271.882 1066.18 275.815 1066.18 282.439V301H1057.21V265.327H1065.76V272.503C1068.32 266.845 1072.53 264.568 1077.77 264.568C1083.77 264.568 1089.5 267.88 1089.5 275.884V301ZM1127.13 275.47L1118.57 275.746C1118.23 271.744 1115.54 270.433 1112.36 270.433C1109.33 270.433 1106.64 271.33 1106.64 274.021C1106.64 281.956 1127.47 277.264 1127.47 291.064C1127.47 297.619 1121.68 301.828 1112.02 301.828C1107.4 301.828 1097.67 300.379 1096.77 290.374H1105.46C1105.88 294.445 1109.12 295.549 1112.36 295.549C1116.64 295.549 1118.57 294.169 1118.57 291.754C1118.57 284.026 1097.8 288.58 1097.8 274.849C1097.8 267.811 1105.19 264.568 1112.23 264.568C1117.95 264.568 1126.03 266.017 1127.13 275.47Z" fill="#1B1A18"/>
<path d="M113.79 113.056H118.778C117.445 119.033 113.102 122.559 106.781 122.559C98.396 122.559 93.236 116.926 93.236 107.595C93.236 98.307 98.568 92.674 106.781 92.674C113.188 92.674 117.488 96.157 118.778 102.005H113.747C112.887 98.608 110.436 96.716 106.781 96.716C101.191 96.716 98.224 100.801 98.224 107.595C98.224 114.346 101.191 118.431 106.781 118.431C110.565 118.431 112.93 116.539 113.79 113.056ZM148.849 112.282H124.296V108.842H148.849V112.282ZM181.162 122H175.959L173.207 114.432H161.124L158.415 122H153.298L164.134 93.147H170.326L181.162 122ZM171.874 110.347L167.144 97.49L162.457 110.347H171.874ZM192.965 122H188.106V97.103H179.033V93.147H202.038V97.103H192.965V122ZM217.446 122H212.587V97.103H203.514V93.147H226.519V97.103H217.446V122ZM251.016 101.532H246.157C245.856 97.189 242.459 96.415 239.75 96.415C236.955 96.415 234.117 97.49 234.117 100.285C234.117 107.552 251.231 103.037 251.231 113.959C251.231 118.861 247.404 122.559 239.707 122.559C236.568 122.559 228.656 121.57 228.269 113.056H233.128C233.3 117.399 236.74 118.732 240.137 118.732C243.534 118.732 246.243 117.528 246.243 114.561C246.243 107.165 229.172 111.981 229.172 100.672C229.172 94.996 234.633 92.674 240.223 92.674C243.792 92.674 250.629 93.921 251.016 101.532Z" fill="#1B1A18"/>
<path d="M111.6 426.4V409.32H114.84V426.48C114.84 433.08 110.6 436.48 104.48 436.48C98.28 436.48 94.12 433.08 94.12 426.48V409.32H97.44V426.4C97.44 431.24 100.32 433.56 104.48 433.56C108.92 433.56 111.6 431.24 111.6 426.4ZM135.593 420.96L132.553 421.16C132.273 418.04 130.033 417.44 127.913 417.44C125.633 417.44 123.553 418.12 123.553 420.4C123.553 426 135.833 422.56 135.833 430.6C135.833 434.16 132.793 436.48 127.713 436.48C125.353 436.48 120.193 435.8 119.713 430.44H122.793C123.113 433.2 125.433 434.04 127.793 434.04C130.713 434.04 132.673 433.16 132.673 430.8C132.673 425.16 120.393 428.52 120.393 420.68C120.393 416.84 124.233 415.16 127.833 415.16C130.633 415.16 135.113 415.88 135.593 420.96ZM154.92 430.36H158.08C157.12 434.2 154.28 436.48 149.64 436.48C143.6 436.48 140.04 432.56 140.04 425.88C140.04 419.2 143.84 415.16 149.64 415.16C155.36 415.16 158.28 418.88 158.28 425.08L158.2 426.6H143.4C143.52 431.24 145.68 433.88 149.56 433.88C152.64 433.88 154.32 432.6 154.92 430.36ZM143.44 424.2H154.96C154.84 420.16 153.36 417.72 149.56 417.72C145.88 417.72 143.84 420.08 143.44 424.2ZM167.448 436H164.208V415.6H167.208V420.04C168.448 416.44 170.608 415.16 172.568 415.16C173.008 415.16 173.728 415.2 174.408 415.44V418.2H172.408C169.568 418.2 167.448 420.56 167.448 424.76V436ZM180.186 420.56H176.786V415.16H180.186V420.56ZM180.186 436H176.786V430.6H180.186V436Z" fill="#1B1A18" fill-opacity="0.7"/>
</g>
<defs>
<linearGradient id="paint0_linear_439_32" x1="600" y1="0" x2="600" y2="630" gradientUnits="userSpaceOnUse">
<stop stop-color="white"/>
<stop offset="1" stop-color="#999999"/>
</linearGradient>
<linearGradient id="paint1_linear_439_32" x1="913.44" y1="260.885" x2="34.2586" y2="692.971" gradientUnits="userSpaceOnUse">
<stop stop-color="#F8F5ED"/>
<stop offset="0.942611" stop-color="#EBB30B"/>
</linearGradient>
<clipPath id="clip0_439_32">
<rect width="1200" height="630" fill="white"/>
</clipPath>
</defs>
</svg>
