<svg width="64" height="72" viewBox="0 0 64 72" fill="none" xmlns="http://www.w3.org/2000/svg">
<path d="M31.9813 4.45937C32.1573 4.45937 32.3197 4.50381 32.4821 4.59098L58.8264 19.9125C59.1357 20.0885 59.3272 20.4133 59.3118 20.7654L59.2092 51.246C59.2092 51.5998 59.0178 51.9228 58.7084 52.0989L32.2753 67.2426C32.1283 67.3315 31.9522 67.3742 31.7745 67.3742C31.5967 67.3742 31.436 67.3298 31.2737 67.2426L4.93111 51.9228C4.62174 51.7468 4.43031 51.422 4.44569 51.0699L4.54825 20.5893C4.54825 20.2355 4.73968 19.9125 5.04905 19.7364L31.4959 4.5773C31.6429 4.50381 31.8189 4.45937 31.9813 4.45937ZM31.9967 0C31.0549 0 30.1131 0.235873 29.2739 0.721292L2.84073 15.865C1.1486 16.8376 0.102553 18.6323 0.102553 20.5756L0 51.0562C0 52.9996 1.03066 54.7943 2.70741 55.7805L29.0517 71.102C29.8909 71.5874 30.8327 71.8387 31.7745 71.8387C32.7163 71.8387 33.658 71.6028 34.4973 71.1174L60.9304 55.9737C62.6226 55.0028 63.6686 53.2064 63.6686 51.2648L63.7711 20.7842C63.7711 18.8408 62.7405 17.0461 61.0637 16.0599L34.7195 0.736676C33.8802 0.251256 32.9385 0 31.9967 0Z" fill="#1B4ADD"/>
<path d="M37.338 16.6155H33.482C33.188 16.6155 32.9368 16.7915 32.8342 17.0718L20.4133 51.1127C20.3244 51.3332 20.5022 51.5691 20.7363 51.5691H24.5923C24.8863 51.5691 25.1376 51.3931 25.2401 51.1127L37.6611 17.0718C37.7499 16.8514 37.5722 16.6155 37.338 16.6155ZM30.5832 16.6155H26.7272C26.4332 16.6155 26.1819 16.7915 26.0794 17.0718L13.6721 51.0991C13.5832 51.3196 13.761 51.5554 13.9952 51.5554H17.8512C18.1451 51.5554 18.3964 51.3794 18.499 51.0991L30.9062 17.0718C30.9951 16.8514 30.8327 16.6155 30.5832 16.6155ZM35.5878 29.8021C35.4852 29.4928 35.0425 29.4928 34.94 29.8021L32.9385 35.3058C32.8804 35.4528 32.8804 35.6289 32.9385 35.7776L38.5311 51.0991C38.6336 51.364 38.8849 51.5554 39.1789 51.5554H43.0349C43.2707 51.5554 43.4468 51.3196 43.3579 51.0991L35.5878 29.8021ZM50.0991 51.0991L38.9584 20.545C38.8558 20.2356 38.4131 20.2356 38.3106 20.545L36.3091 26.0487C36.251 26.1957 36.251 26.3717 36.3091 26.5204L45.2722 51.0991C45.3748 51.364 45.6261 51.5554 45.92 51.5554H49.776C50.0256 51.5708 50.188 51.3196 50.0991 51.0991Z" fill="#1B4ADD"/>
</svg>
