<svg width="986" height="242" viewBox="0 0 986 242" fill="none" xmlns="http://www.w3.org/2000/svg">
<path d="M56.2616 36H53.8816L51.1816 30.72H48.5216V36H46.2616V22.58H50.9816C54.0416 22.58 55.9816 23.94 55.9816 26.56C55.9816 28.38 54.9616 29.74 53.3416 30.3L56.2616 36ZM48.5216 28.9H50.9416C52.6016 28.9 53.6616 28.12 53.6616 26.56C53.6616 25.14 52.6816 24.42 50.9016 24.42H48.5216V28.9ZM67.1357 31.44H59.9157C60.0157 33.42 60.9357 34.54 62.5757 34.54C63.9357 34.54 64.6357 33.92 64.8957 32.92H67.0957C66.6357 35 65.1157 36.24 62.6357 36.24C59.5157 36.24 57.6357 34.26 57.6357 30.94C57.6357 27.5 59.5957 25.5 62.6357 25.5C65.5157 25.5 67.1957 27.3 67.1957 30.54L67.1357 31.44ZM59.9557 29.82H64.9157C64.7957 28.18 64.1557 27.18 62.5757 27.18C61.0557 27.18 60.1757 28.12 59.9557 29.82ZM71.9968 40.24H69.7968V25.72H71.8768V27.74C72.6368 26.14 73.8368 25.5 75.3168 25.5C77.5368 25.5 79.3968 27.02 79.3968 30.88C79.3968 34.62 77.5568 36.24 75.3168 36.24C73.8768 36.24 72.6768 35.66 71.9168 34.12L71.9968 35.7V40.24ZM74.6568 34.54C76.0568 34.54 77.1368 33.44 77.1368 30.88C77.1368 28.28 76.0568 27.18 74.6568 27.18C73.0368 27.18 71.9768 28.18 71.9768 30.88C71.9768 33.5 73.0168 34.54 74.6568 34.54ZM90.8471 36H88.7671V33.94C88.0271 35.52 86.8271 36.24 85.2871 36.24C83.4671 36.24 81.8671 35.28 81.8671 32.9V25.72H84.0671V32.14C84.0671 33.56 84.7071 34.4 86.0871 34.4C87.6071 34.4 88.6471 33.2 88.6471 31.28V25.72H90.8471V36ZM99.0755 34.34V36.02C98.6155 36.2 97.9555 36.24 97.8155 36.24C94.6555 36.24 94.3355 34.56 94.3355 32.14V27.46H92.8155V25.78H94.3355V23.1H96.5355V25.78H99.0755V27.46H96.5355V32.12C96.5355 33.7 96.7755 34.34 98.0355 34.34H99.0755ZM110.724 34.54V36.02C110.184 36.16 109.604 36.24 109.264 36.24C107.744 36.24 107.164 35.72 107.144 34.2C106.344 35.8 104.984 36.24 103.824 36.24C102.424 36.24 100.444 35.62 100.444 33.2C100.444 30.52 102.664 30.06 105.144 29.96L107.044 29.88V28.9C107.044 27.86 106.664 27.06 105.024 27.06C104.144 27.06 103.044 27.36 102.924 28.7L100.784 28.52C100.984 26.18 103.364 25.5 105.024 25.5C108.024 25.5 109.244 26.74 109.244 28.8V33.16C109.244 34.22 109.344 34.54 110.044 34.54H110.724ZM107.044 31.68V31.24L105.104 31.32C103.744 31.38 102.664 31.74 102.664 33.06C102.664 34.42 103.924 34.56 104.544 34.56C105.824 34.56 107.044 33.62 107.044 31.68ZM117.669 34.34V36.02C117.209 36.2 116.549 36.24 116.409 36.24C113.249 36.24 112.929 34.56 112.929 32.14V27.46H111.409V25.78H112.929V23.1H115.129V25.78H117.669V27.46H115.129V32.12C115.129 33.7 115.369 34.34 116.629 34.34H117.669ZM121.977 36H119.777V25.72H121.977V36ZM122.037 23.92H119.717V21.88H122.037V23.92ZM129.369 36.24C126.329 36.24 124.449 34.22 124.449 30.88C124.449 27.48 126.329 25.5 129.369 25.5C132.389 25.5 134.269 27.48 134.269 30.88C134.269 34.22 132.389 36.24 129.369 36.24ZM129.369 34.54C131.129 34.54 132.009 33.22 132.009 30.88C132.009 28.52 131.129 27.18 129.369 27.18C127.609 27.18 126.709 28.52 126.709 30.88C126.709 33.22 127.609 34.54 129.369 34.54ZM145.77 36H143.57V29.56C143.57 28.18 142.89 27.32 141.55 27.32C139.99 27.32 138.95 28.52 138.95 30.44V36H136.75V25.72H138.83V27.78C139.59 26.14 140.83 25.5 142.35 25.5C144.09 25.5 145.77 26.46 145.77 28.76V36Z" fill="#5E5C55"/>
<rect x="1.5" y="1.5" width="189" height="56" stroke="#5E5C55" stroke-width="3"/>
<path d="M123.01 128H120.75V114.58H123.01V128ZM135.08 128H133V126C132.22 127.62 131.02 128.24 129.56 128.24C127.34 128.24 125.5 126.72 125.5 122.86C125.5 119.1 127.34 117.5 129.56 117.5C131.02 117.5 132.24 118.1 132.96 119.62L132.88 118.14V113.6H135.08V128ZM130.24 126.56C131.84 126.56 132.9 125.52 132.9 122.86C132.9 120.22 131.86 119.18 130.24 119.18C128.84 119.18 127.76 120.28 127.76 122.86C127.76 125.46 128.84 126.56 130.24 126.56ZM147.19 123.44H139.97C140.07 125.42 140.99 126.54 142.63 126.54C143.99 126.54 144.69 125.92 144.95 124.92H147.15C146.69 127 145.17 128.24 142.69 128.24C139.57 128.24 137.69 126.26 137.69 122.94C137.69 119.5 139.65 117.5 142.69 117.5C145.57 117.5 147.25 119.3 147.25 122.54L147.19 123.44ZM140.01 121.82H144.97C144.85 120.18 144.21 119.18 142.63 119.18C141.11 119.18 140.23 120.12 140.01 121.82ZM158.871 128H156.671V121.56C156.671 120.18 155.991 119.32 154.651 119.32C153.091 119.32 152.051 120.52 152.051 122.44V128H149.851V117.72H151.931V119.78C152.691 118.14 153.931 117.5 155.451 117.5C157.191 117.5 158.871 118.46 158.871 120.76V128ZM167.06 126.34V128.02C166.6 128.2 165.94 128.24 165.8 128.24C162.64 128.24 162.32 126.56 162.32 124.14V119.46H160.8V117.78H162.32V115.1H164.52V117.78H167.06V119.46H164.52V124.12C164.52 125.7 164.76 126.34 166.02 126.34H167.06ZM171.368 128H169.168V117.72H171.368V128ZM171.428 115.92H169.108V113.88H171.428V115.92ZM179.579 126.34V128.02C179.119 128.2 178.459 128.24 178.319 128.24C175.159 128.24 174.839 126.56 174.839 124.14V119.46H173.319V117.78H174.839V115.1H177.039V117.78H179.579V119.46H177.039V124.12C177.039 125.7 177.279 126.34 178.539 126.34H179.579ZM184.647 132.24H182.507L184.307 127.64L180.447 117.72H182.787L185.447 125.36L188.187 117.72H190.487L184.647 132.24Z" fill="#5E5C55"/>
<rect x="60.5" y="93.5" width="189" height="56" stroke="#5E5C55" stroke-width="3"/>
<path d="M481.934 109.84H484.254C483.634 112.62 481.614 114.26 478.674 114.26C474.774 114.26 472.374 111.64 472.374 107.3C472.374 102.98 474.854 100.36 478.674 100.36C481.654 100.36 483.654 101.98 484.254 104.7H481.914C481.514 103.12 480.374 102.24 478.674 102.24C476.074 102.24 474.694 104.14 474.694 107.3C474.694 110.44 476.074 112.34 478.674 112.34C480.434 112.34 481.534 111.46 481.934 109.84ZM498.241 109.48H486.821V107.88H498.241V109.48ZM513.27 114H510.85L509.57 110.48H503.95L502.69 114H500.31L505.35 100.58H508.23L513.27 114ZM508.95 108.58L506.75 102.6L504.57 108.58H508.95ZM518.759 114H516.499V102.42H512.279V100.58H522.979V102.42H518.759V114ZM530.146 114H527.886V102.42H523.666V100.58H534.366V102.42H530.146V114ZM545.76 104.48H543.5C543.36 102.46 541.78 102.1 540.52 102.1C539.22 102.1 537.9 102.6 537.9 103.9C537.9 107.28 545.86 105.18 545.86 110.26C545.86 112.54 544.08 114.26 540.5 114.26C539.04 114.26 535.36 113.8 535.18 109.84H537.44C537.52 111.86 539.12 112.48 540.7 112.48C542.28 112.48 543.54 111.92 543.54 110.54C543.54 107.1 535.6 109.34 535.6 104.08C535.6 101.44 538.14 100.36 540.74 100.36C542.4 100.36 545.58 100.94 545.76 104.48Z" fill="#5E5C55"/>
<rect x="414.5" y="79.5" width="189" height="56" stroke="#5E5C55" stroke-width="3"/>
<path d="M849.829 33.84H852.149C851.529 36.62 849.509 38.26 846.569 38.26C842.669 38.26 840.269 35.64 840.269 31.3C840.269 26.98 842.749 24.36 846.569 24.36C849.549 24.36 851.549 25.98 852.149 28.7H849.809C849.409 27.12 848.269 26.24 846.569 26.24C843.969 26.24 842.589 28.14 842.589 31.3C842.589 34.44 843.969 36.34 846.569 36.34C848.329 36.34 849.429 35.46 849.829 33.84ZM858.935 38.24C855.895 38.24 854.015 36.22 854.015 32.88C854.015 29.48 855.895 27.5 858.935 27.5C861.955 27.5 863.835 29.48 863.835 32.88C863.835 36.22 861.955 38.24 858.935 38.24ZM858.935 36.54C860.695 36.54 861.575 35.22 861.575 32.88C861.575 30.52 860.695 29.18 858.935 29.18C857.175 29.18 856.275 30.52 856.275 32.88C856.275 35.22 857.175 36.54 858.935 36.54ZM881.336 38H879.136V31.56C879.136 30.18 878.496 29.32 877.276 29.32C875.876 29.32 874.936 30.52 874.936 32.44V38H872.736V31.56C872.736 30.18 872.096 29.32 870.856 29.32C869.476 29.32 868.516 30.52 868.516 32.44V38H866.316V27.72H868.396V29.8C869.096 28.16 870.256 27.5 871.656 27.5C873.076 27.5 874.416 28.18 874.816 29.76C875.496 28.2 876.616 27.5 878.076 27.5C879.736 27.5 881.336 28.46 881.336 30.76V38ZM886.661 42.24H884.461V27.72H886.541V29.74C887.301 28.14 888.501 27.5 889.981 27.5C892.201 27.5 894.061 29.02 894.061 32.88C894.061 36.62 892.221 38.24 889.981 38.24C888.541 38.24 887.341 37.66 886.581 36.12L886.661 37.7V42.24ZM889.321 36.54C890.721 36.54 891.801 35.44 891.801 32.88C891.801 30.28 890.721 29.18 889.321 29.18C887.701 29.18 886.641 30.18 886.641 32.88C886.641 35.5 887.681 36.54 889.321 36.54ZM900.771 38.24C897.731 38.24 895.851 36.22 895.851 32.88C895.851 29.48 897.731 27.5 900.771 27.5C903.791 27.5 905.671 29.48 905.671 32.88C905.671 36.22 903.791 38.24 900.771 38.24ZM900.771 36.54C902.531 36.54 903.411 35.22 903.411 32.88C903.411 30.52 902.531 29.18 900.771 29.18C899.011 29.18 898.111 30.52 898.111 32.88C898.111 35.22 899.011 36.54 900.771 36.54ZM915.792 30.56L913.712 30.64C913.592 29.32 912.672 28.98 911.692 28.98C910.712 28.98 909.832 29.26 909.832 30.18C909.832 32.68 915.912 31.18 915.912 35.2C915.912 37.04 914.292 38.24 911.592 38.24C910.312 38.24 907.592 37.84 907.332 35.04H909.472C909.612 36.3 910.632 36.66 911.672 36.66C912.992 36.66 913.732 36.24 913.732 35.36C913.732 32.88 907.652 34.34 907.652 30.38C907.652 28.4 909.712 27.5 911.652 27.5C913.212 27.5 915.512 27.9 915.792 30.56ZM920.509 38H918.309V27.72H920.509V38ZM920.569 25.92H918.249V23.88H920.569V25.92ZM928.72 36.34V38.02C928.26 38.2 927.6 38.24 927.46 38.24C924.3 38.24 923.98 36.56 923.98 34.14V29.46H922.46V27.78H923.98V25.1H926.18V27.78H928.72V29.46H926.18V34.12C926.18 35.7 926.42 36.34 927.68 36.34H928.72ZM939.69 33.44H932.47C932.57 35.42 933.49 36.54 935.13 36.54C936.49 36.54 937.19 35.92 937.45 34.92H939.65C939.19 37 937.67 38.24 935.19 38.24C932.07 38.24 930.19 36.26 930.19 32.94C930.19 29.5 932.15 27.5 935.19 27.5C938.07 27.5 939.75 29.3 939.75 32.54L939.69 33.44ZM932.51 31.82H937.47C937.35 30.18 936.71 29.18 935.13 29.18C933.61 29.18 932.73 30.12 932.51 31.82ZM851.125 62H848.705L847.425 58.48H841.805L840.545 62H838.165L843.205 48.58H846.085L851.125 62ZM846.805 56.58L844.605 50.6L842.425 56.58H846.805ZM858.036 60.34V62.02C857.576 62.2 856.916 62.24 856.776 62.24C853.616 62.24 853.296 60.56 853.296 58.14V53.46H851.776V51.78H853.296V49.1H855.496V51.78H858.036V53.46H855.496V58.12C855.496 59.7 855.736 60.34 856.996 60.34H858.036ZM865.204 60.34V62.02C864.744 62.2 864.084 62.24 863.944 62.24C860.784 62.24 860.464 60.56 860.464 58.14V53.46H858.944V51.78H860.464V49.1H862.664V51.78H865.204V53.46H862.664V58.12C862.664 59.7 862.904 60.34 864.164 60.34H865.204ZM876.175 57.44H868.955C869.055 59.42 869.975 60.54 871.615 60.54C872.975 60.54 873.675 59.92 873.935 58.92H876.135C875.675 61 874.155 62.24 871.675 62.24C868.555 62.24 866.675 60.26 866.675 56.94C866.675 53.5 868.635 51.5 871.675 51.5C874.555 51.5 876.235 53.3 876.235 56.54L876.175 57.44ZM868.995 55.82H873.955C873.835 54.18 873.195 53.18 871.615 53.18C870.095 53.18 869.215 54.12 868.995 55.82ZM886.476 54.56L884.396 54.64C884.276 53.32 883.356 52.98 882.376 52.98C881.396 52.98 880.516 53.26 880.516 54.18C880.516 56.68 886.596 55.18 886.596 59.2C886.596 61.04 884.976 62.24 882.276 62.24C880.996 62.24 878.276 61.84 878.016 59.04H880.156C880.296 60.3 881.316 60.66 882.356 60.66C883.676 60.66 884.416 60.24 884.416 59.36C884.416 56.88 878.336 58.34 878.336 54.38C878.336 52.4 880.396 51.5 882.336 51.5C883.896 51.5 886.196 51.9 886.476 54.56ZM894.052 60.34V62.02C893.592 62.2 892.932 62.24 892.792 62.24C889.632 62.24 889.312 60.56 889.312 58.14V53.46H887.792V51.78H889.312V49.1H891.512V51.78H894.052V53.46H891.512V58.12C891.512 59.7 891.752 60.34 893.012 60.34H894.052ZM905.7 60.54V62.02C905.16 62.16 904.58 62.24 904.24 62.24C902.72 62.24 902.14 61.72 902.12 60.2C901.32 61.8 899.96 62.24 898.8 62.24C897.4 62.24 895.42 61.62 895.42 59.2C895.42 56.52 897.64 56.06 900.12 55.96L902.02 55.88V54.9C902.02 53.86 901.64 53.06 900 53.06C899.12 53.06 898.02 53.36 897.9 54.7L895.76 54.52C895.96 52.18 898.34 51.5 900 51.5C903 51.5 904.22 52.74 904.22 54.8V59.16C904.22 60.22 904.32 60.54 905.02 60.54H905.7ZM902.02 57.68V57.24L900.08 57.32C898.72 57.38 897.64 57.74 897.64 59.06C897.64 60.42 898.9 60.56 899.52 60.56C900.8 60.56 902.02 59.62 902.02 57.68ZM912.646 60.34V62.02C912.186 62.2 911.526 62.24 911.386 62.24C908.226 62.24 907.906 60.56 907.906 58.14V53.46H906.386V51.78H907.906V49.1H910.106V51.78H912.646V53.46H910.106V58.12C910.106 59.7 910.346 60.34 911.606 60.34H912.646ZM916.954 62H914.754V51.72H916.954V62ZM917.014 49.92H914.694V47.88H917.014V49.92ZM924.345 62.24C921.305 62.24 919.425 60.22 919.425 56.88C919.425 53.48 921.305 51.5 924.345 51.5C927.365 51.5 929.245 53.48 929.245 56.88C929.245 60.22 927.365 62.24 924.345 62.24ZM924.345 60.54C926.105 60.54 926.985 59.22 926.985 56.88C926.985 54.52 926.105 53.18 924.345 53.18C922.585 53.18 921.685 54.52 921.685 56.88C921.685 59.22 922.585 60.54 924.345 60.54ZM940.746 62H938.546V55.56C938.546 54.18 937.866 53.32 936.526 53.32C934.966 53.32 933.926 54.52 933.926 56.44V62H931.726V51.72H933.806V53.78C934.566 52.14 935.806 51.5 937.326 51.5C939.066 51.5 940.746 52.46 940.746 54.76V62Z" fill="#5E5C55"/>
<rect x="795.5" y="1.5" width="189" height="229" stroke="#5E5C55" stroke-width="3"/>
<rect x="811.5" y="79.5" width="156" height="31" stroke="#5E5C55" stroke-width="3" stroke-dasharray="6 6"/>
<rect x="811.5" y="179.5" width="156" height="31" stroke="#5E5C55" stroke-width="3" stroke-dasharray="6 6"/>
<rect x="811.5" y="129.5" width="156" height="31" stroke="#5E5C55" stroke-width="3" stroke-dasharray="6 6"/>
<path d="M58.5277 214.84H60.8477C60.2277 217.62 58.2077 219.26 55.2677 219.26C51.3677 219.26 48.9677 216.64 48.9677 212.3C48.9677 207.98 51.4477 205.36 55.2677 205.36C58.2477 205.36 60.2477 206.98 60.8477 209.7H58.5077C58.1077 208.12 56.9677 207.24 55.2677 207.24C52.6677 207.24 51.2877 209.14 51.2877 212.3C51.2877 215.44 52.6677 217.34 55.2677 217.34C57.0277 217.34 58.1277 216.46 58.5277 214.84ZM65.5945 219H63.3945V208.72H65.4745V210.86C66.1145 209.14 67.1545 208.5 68.2145 208.5C68.4345 208.5 68.7945 208.52 69.0745 208.62V210.5H68.0145C66.5945 210.5 65.5945 211.54 65.5945 213.56V219ZM79.7177 214.44H72.4977C72.5977 216.42 73.5177 217.54 75.1577 217.54C76.5177 217.54 77.2177 216.92 77.4777 215.92H79.6777C79.2177 218 77.6977 219.24 75.2177 219.24C72.0977 219.24 70.2177 217.26 70.2177 213.94C70.2177 210.5 72.1777 208.5 75.2177 208.5C78.0977 208.5 79.7777 210.3 79.7777 213.54L79.7177 214.44ZM72.5377 212.82H77.4977C77.3777 211.18 76.7377 210.18 75.1577 210.18C73.6377 210.18 72.7577 211.12 72.5377 212.82ZM91.2788 219H89.1988V217C88.4188 218.62 87.2188 219.24 85.7588 219.24C83.5388 219.24 81.6988 217.72 81.6988 213.86C81.6988 210.1 83.5388 208.5 85.7588 208.5C87.2188 208.5 88.4388 209.1 89.1588 210.62L89.0788 209.14V204.6H91.2788V219ZM86.4388 217.56C88.0388 217.56 89.0988 216.52 89.0988 213.86C89.0988 211.22 88.0588 210.18 86.4388 210.18C85.0388 210.18 83.9588 211.28 83.9588 213.86C83.9588 216.46 85.0388 217.56 86.4388 217.56ZM103.39 214.44H96.1696C96.2696 216.42 97.1896 217.54 98.8296 217.54C100.19 217.54 100.89 216.92 101.15 215.92H103.35C102.89 218 101.37 219.24 98.8896 219.24C95.7696 219.24 93.8896 217.26 93.8896 213.94C93.8896 210.5 95.8496 208.5 98.8896 208.5C101.77 208.5 103.45 210.3 103.45 213.54L103.39 214.44ZM96.2096 212.82H101.17C101.05 211.18 100.41 210.18 98.8296 210.18C97.3096 210.18 96.4296 211.12 96.2096 212.82ZM115.071 219H112.871V212.56C112.871 211.18 112.191 210.32 110.851 210.32C109.291 210.32 108.251 211.52 108.251 213.44V219H106.051V208.72H108.131V210.78C108.891 209.14 110.131 208.5 111.651 208.5C113.391 208.5 115.071 209.46 115.071 211.76V219ZM123.259 217.34V219.02C122.799 219.2 122.139 219.24 121.999 219.24C118.839 219.24 118.519 217.56 118.519 215.14V210.46H116.999V208.78H118.519V206.1H120.719V208.78H123.259V210.46H120.719V215.12C120.719 216.7 120.959 217.34 122.219 217.34H123.259ZM127.567 219H125.367V208.72H127.567V219ZM127.627 206.92H125.307V204.88H127.627V206.92ZM140.259 217.54V219.02C139.719 219.16 139.139 219.24 138.799 219.24C137.279 219.24 136.699 218.72 136.679 217.2C135.879 218.8 134.519 219.24 133.359 219.24C131.959 219.24 129.979 218.62 129.979 216.2C129.979 213.52 132.199 213.06 134.679 212.96L136.579 212.88V211.9C136.579 210.86 136.199 210.06 134.559 210.06C133.679 210.06 132.579 210.36 132.459 211.7L130.319 211.52C130.519 209.18 132.899 208.5 134.559 208.5C137.559 208.5 138.779 209.74 138.779 211.8V216.16C138.779 217.22 138.879 217.54 139.579 217.54H140.259ZM136.579 214.68V214.24L134.639 214.32C133.279 214.38 132.199 214.74 132.199 216.06C132.199 217.42 133.459 217.56 134.079 217.56C135.359 217.56 136.579 216.62 136.579 214.68ZM144.344 219H142.144V204.6H144.344V219ZM155.136 211.56L153.056 211.64C152.936 210.32 152.016 209.98 151.036 209.98C150.056 209.98 149.176 210.26 149.176 211.18C149.176 213.68 155.256 212.18 155.256 216.2C155.256 218.04 153.636 219.24 150.936 219.24C149.656 219.24 146.936 218.84 146.676 216.04H148.816C148.956 217.3 149.976 217.66 151.016 217.66C152.336 217.66 153.076 217.24 153.076 216.36C153.076 213.88 146.996 215.34 146.996 211.38C146.996 209.4 149.056 208.5 150.996 208.5C152.556 208.5 154.856 208.9 155.136 211.56Z" fill="#5E5C55"/>
<rect x="7.5" y="184.5" width="189" height="56" stroke="#5E5C55" stroke-width="3"/>
<path d="M397.454 87.4296C398.244 87.1787 398.68 86.3352 398.43 85.5457L394.341 72.6797C394.09 71.8902 393.247 71.4536 392.457 71.7045C391.668 71.9554 391.231 72.7988 391.482 73.5883L395.116 85.0247L383.68 88.6591C382.89 88.91 382.454 89.7534 382.704 90.5429C382.955 91.3324 383.799 91.7691 384.588 91.5182L397.454 87.4296ZM204.729 29.4754C246.012 37.0505 342.023 59.2276 396.31 87.3321L397.69 84.6679C342.971 56.34 246.569 34.1026 205.271 26.5246L204.729 29.4754Z" fill="#5E5C55"/>
<path d="M772.436 57.5647C773.229 57.8054 773.676 58.6431 773.435 59.4358L769.513 72.3534C769.272 73.1461 768.434 73.5936 767.642 73.3529C766.849 73.1122 766.402 72.2745 766.642 71.4818L770.129 59.9995L758.647 56.5129C757.854 56.2722 757.406 55.4345 757.647 54.6418C757.888 53.8491 758.726 53.4016 759.518 53.6423L772.436 57.5647ZM617.721 105.526C650.83 99.2576 727.796 80.9111 771.293 57.6769L772.707 60.3231C728.771 83.7916 651.406 102.202 618.279 108.474L617.721 105.526Z" fill="#5E5C55"/>
<path d="M464.5 156.988C464.493 156.16 463.816 155.493 462.988 155.5L449.488 155.608C448.66 155.615 447.994 156.292 448 157.12C448.007 157.948 448.684 158.615 449.512 158.608L461.512 158.512L461.608 170.512C461.615 171.34 462.292 172.006 463.12 172C463.948 171.993 464.615 171.316 464.608 170.488L464.5 156.988ZM218.525 224.5C249.02 223.999 297.843 220.091 345.275 209.992C392.619 199.912 438.932 183.595 464.069 158.052L461.931 155.948C437.468 180.805 391.948 196.988 344.65 207.058C297.44 217.109 248.813 221.001 218.475 221.5L218.525 224.5Z" fill="#5E5C55"/>
<path d="M383.768 115.301C384.211 114.601 384.001 113.674 383.301 113.232L371.887 106.023C371.186 105.58 370.26 105.79 369.818 106.49C369.375 107.191 369.584 108.117 370.285 108.559L380.431 114.967L374.023 125.113C373.58 125.814 373.79 126.74 374.49 127.182C375.191 127.625 376.117 127.416 376.559 126.715L383.768 115.301ZM266.288 127.985C279.366 129.853 320.729 129.986 382.83 115.963L382.17 113.037C320.271 127.014 279.301 126.813 266.712 125.015L266.288 127.985Z" fill="#5E5C55"/>
</svg>
