<svg width="43" height="55" viewBox="0 0 43 55" fill="none" xmlns="http://www.w3.org/2000/svg">
<path d="M18 36.6C8.08 36.6 0 28.53 0 18.6C0 8.67 8.08 0.6 18 0.6C27.92 0.6 36 8.67 36 18.6C36 28.53 27.92 36.6 18 36.6ZM18 6.6C11.38 6.6 6 11.98 6 18.6C6 25.22 11.38 30.6 18 30.6C24.62 30.6 30 25.22 30 18.6C30 11.98 24.62 6.6 18 6.6ZM23.12 53.72L35.12 41.72C36.29 40.55 36.29 38.65 35.12 37.48C33.95 36.31 32.05 36.31 30.88 37.48L18.88 49.48C17.71 50.65 17.71 52.55 18.88 53.72C19.47 54.31 20.23 54.6 21 54.6C21.77 54.6 22.54 54.31 23.12 53.72ZM39 0C37.02 0 35.4 1.62 35.4 3.6C35.4 5.58 37.02 7.2 39 7.2C40.98 7.2 42.6 5.58 42.6 3.6C42.6 1.62 40.98 0 39 0Z" fill="#6C1C1C"/>
</svg>
